<svg xmlns="http://www.w3.org/2000/svg" viewBox="0 0 64 64">
  <rect width="64" height="64" rx="12" fill="#faf6ef"/>
  <g stroke="#b68f4e" stroke-width="2.4" stroke-linecap="round">
    <line x1="32" y1="8" x2="32" y2="15"/>
    <line x1="19" y1="11" x2="22.5" y2="17.5"/>
    <line x1="45" y1="11" x2="41.5" y2="17.5"/>
  </g>
  <path d="M16 56 V34 a16 16 0 0 1 32 0 V56" stroke="#b68f4e" stroke-width="2.6" fill="none" stroke-linecap="round"/>
  <path d="M32 49c-5.5-3.9-10-7.6-10-12.6 0-2.9 2.3-5.1 5.1-5.1 1.9 0 3.6.9 4.9 2.7 1.3-1.8 3-2.7 4.9-2.7 2.8 0 5.1 2.2 5.1 5.1C42 41.4 37.5 45.1 32 49z" fill="#d9342a"/>
</svg>
